<?xml version="1.0" encoding="UTF-8" standalone="no"?>
<!-- Created with Inkscape (http://www.inkscape.org/) -->

<svg
   xmlns:dc="http://purl.org/dc/elements/1.1/"
   xmlns:cc="http://creativecommons.org/ns#"
   xmlns:rdf="http://www.w3.org/1999/02/22-rdf-syntax-ns#"
   xmlns:svg="http://www.w3.org/2000/svg"
   xmlns="http://www.w3.org/2000/svg"
   xmlns:sodipodi="http://sodipodi.sourceforge.net/DTD/sodipodi-0.dtd"
   xmlns:inkscape="http://www.inkscape.org/namespaces/inkscape"
   version="1.1"
   id="svg64"
   xml:space="preserve"
   width="905.33331"
   height="612"
   viewBox="0 0 905.33331 612"
   sodipodi:docname="logoH.svg"
   inkscape:version="0.92.1 r15371"
   inkscape:export-filename="/home/yam/workspace/http/logoH.png"
   inkscape:export-xdpi="103.21773"
   inkscape:export-ydpi="103.21773"><metadata
     id="metadata70"><rdf:RDF><cc:Work
         rdf:about=""><dc:format>image/svg+xml</dc:format><dc:type
           rdf:resource="http://purl.org/dc/dcmitype/StillImage" /><dc:title /></cc:Work></rdf:RDF></metadata><defs
     id="defs68"><clipPath
       clipPathUnits="userSpaceOnUse"
       id="clipPath92"><path
         d="M 0,459 H 679 V 0 H 0 Z"
         id="path90"
         inkscape:connector-curvature="0" /></clipPath><clipPath
       clipPathUnits="userSpaceOnUse"
       id="clipPath156"><path
         d="m 302.35,287.913 c 5.96,-14.035 14.8,-25.935 25.603,-36.357 v 0 c 7.332,-7.084 15.313,-13.152 24.456,-17.299 v 0 c 12.158,-5.518 24.717,-9.027 37.918,-8.929 v 0 c 5.38,0.039 10.6,0.902 15.662,2.52 v 0 c -3.919,-0.915 -7.939,-1.379 -12.06,-1.391 v 0 c -13.48,-0.055 -26.412,3.541 -38.988,9.18 v 0 c -9.456,4.229 -17.786,10.409 -25.485,17.608 v 0 c -11.338,10.603 -20.712,22.692 -27.212,36.937 v 0 c -1.52,3.338 -2.801,6.741 -3.688,10.232 v 0 c 0.708,-4.295 2.075,-8.445 3.794,-12.501"
         id="path154"
         inkscape:connector-curvature="0" /></clipPath><linearGradient
       x1="0"
       y1="0"
       x2="1"
       y2="0"
       gradientUnits="userSpaceOnUse"
       gradientTransform="matrix(196,-18,-18,-196,250.12793,271.35156)"
       spreadMethod="pad"
       id="linearGradient168"><stop
         style="stop-opacity:1;stop-color:#f0d856"
         offset="0"
         id="stop162" /><stop
         style="stop-opacity:1;stop-color:#f1022e"
         offset="0.456989"
         id="stop164" /><stop
         style="stop-opacity:1;stop-color:#91025a"
         offset="1"
         id="stop166" /></linearGradient><clipPath
       clipPathUnits="userSpaceOnUse"
       id="clipPath178"><path
         d="m 336.401,354.295 -2.845,-10.773 c -4.084,-0.335 -8.087,-0.996 -11.971,-1.993 v 0 l -6.2,9.231 c -1.084,1.615 -3.42,2.275 -5.19,1.468 v 0 l -12.418,-5.672 c -1.771,-0.809 -2.799,-3.007 -2.29,-4.885 v 0 l 2.926,-10.755 c -3.326,-2.308 -6.453,-4.891 -9.347,-7.721 v 0 l -10.01,4.908 c -1.747,0.856 -4.101,0.26 -5.229,-1.326 v 0 l -7.918,-11.118 c -1.129,-1.585 -0.922,-4.003 0.459,-5.374 v 0 l 7.893,-7.834 c -1.712,-3.626 -3.122,-7.434 -4.222,-11.382 v 0 l -11.116,-0.753 c -1.942,-0.134 -3.682,-1.826 -3.867,-3.762 v 0 l -1.297,-13.589 c -0.184,-1.939 1.204,-3.929 3.085,-4.424 v 0 l 10.775,-2.847 c 0.333,-4.083 0.995,-8.087 1.992,-11.97 v 0 l -9.232,-6.2 c -1.616,-1.083 -2.275,-3.42 -1.467,-5.189 v 0 l 5.672,-12.417 c 0.809,-1.772 3.006,-2.801 4.883,-2.289 v 0 l 10.755,2.926 c 2.31,-3.328 4.893,-6.455 7.722,-9.352 v 0 l -4.908,-10.005 c -0.855,-1.746 -0.26,-4.1 1.325,-5.231 v 0 l 11.122,-7.918 c 1.585,-1.129 4.002,-0.924 5.374,0.457 v 0 l 7.832,7.895 c 3.626,-1.713 7.432,-3.122 11.38,-4.221 v 0 l 0.756,-11.117 c 0.131,-1.944 1.823,-3.682 3.761,-3.868 v 0 l 13.588,-1.296 c 1.939,-0.184 3.929,1.203 4.424,3.086 v 0 l 2.845,10.773 c 4.086,0.334 8.09,0.998 11.973,1.992 v 0 l 6.199,-9.228 c 1.084,-1.618 3.42,-2.278 5.191,-1.469 v 0 l 12.417,5.672 c 1.77,0.806 2.8,3.004 2.29,4.884 v 0 l -1.314,4.827 c -20.953,3.861 -66.393,18.534 -87.178,73.964 v 0 c 20.522,-49.203 65.754,-63.699 85.898,-67.797 v 0 c 3.201,2.249 6.22,4.747 9.017,7.481 v 0 l 10.009,-4.907 c 1.747,-0.855 4.099,-0.261 5.229,1.327 v 0 l 7.455,10.471 c -0.55,-0.299 -1.122,-0.561 -1.707,-0.78 v 0 c -6.179,-2.31 -12.575,-3.515 -19.161,-3.687 v 0 c -13.987,-0.354 -27.225,2.959 -39.996,8.32 v 0 c -9.603,4.023 -17.942,10.03 -25.568,17.072 v 0 c -11.242,10.364 -20.373,22.266 -26.415,36.395 v 0 c -2.459,5.763 -4.195,11.733 -4.225,18.073 v 0 c -0.009,3.036 1.247,5.458 3.857,7.11 v 0 c 1.172,0.103 0.682,-0.813 0.818,-1.344 v 0 c -0.051,-0.066 -0.105,-0.134 -0.16,-0.197 v 0 c -0.007,-0.006 -0.009,-0.01 -0.016,-0.016 v 0 c -0.082,-0.383 -0.168,-0.77 -0.255,-1.156 v 0 c 0.958,-2.229 0.997,-2.245 3.31,-1.279 v 0 c 1.189,0.493 2.328,1.136 3.662,1.171 v 0 c 1.48,0.445 2.94,0.512 4.359,-0.228 v 0 c 0.208,-0.236 0.458,-0.195 0.707,-0.154 v 0 c 0.196,0.034 0.393,0.066 0.568,-0.037 v 0 c 2.146,0.144 3.101,1.815 4.213,3.272 v 0 c 0.152,0.19 0.307,0.374 0.459,0.559 v 0 c 0.946,1.648 2.296,2.87 3.946,3.773 v 0 l 0.005,-10e-4 c 0.132,0.117 0.27,0.232 0.406,0.349 v 0 c 0.225,0.685 0.567,1.373 -0.086,2.019 v 0 c -0.279,0.114 -0.486,0.414 -0.845,0.269 v 0 c -0.62,0.516 -1.458,0.145 -2.115,0.516 v 0 c -0.708,0.072 0.057,0.569 -0.218,0.768 v 0 c 1.135,0.386 2.286,0.564 3.468,0.193 v 0 c 2.189,-0.35 3.783,-1.628 5.06,-3.336 v 0 c 1.929,-2.571 3.361,-5.431 4.621,-8.382 v 0 c 4.915,-11.546 9.765,-23.062 17.095,-33.438 v 0 c 7.386,-10.463 16.078,-19.333 26.889,-26.164 v 0 c 10.548,-6.671 22.238,-10.344 34.284,-13.079 v 0 c 1.028,-0.232 2.082,-0.392 3.106,-0.636 v 0 c -0.023,0.025 -0.04,0.055 -0.063,0.078 v 0 l -7.893,7.832 c 0.015,0.032 0.028,0.065 0.042,0.095 v 0 c -20.996,7.906 -52.049,24.893 -62.76,58.307 v 0 c 13.495,-30.406 44.643,-46.214 64.775,-53.554 v 0 c 0.815,2.129 1.545,4.304 2.164,6.529 v 0 l 11.118,0.757 c 1.942,0.13 3.681,1.823 3.865,3.761 v 0 l 1.297,13.588 c 0.186,1.938 -1.203,3.93 -3.084,4.426 v 0 l -10.774,2.843 c -0.334,4.086 -0.995,8.089 -1.993,11.974 v 0 l 9.232,6.2 c 1.615,1.085 2.276,3.42 1.467,5.191 v 0 l -5.671,12.415 c -0.809,1.771 -3.007,2.8 -4.885,2.29 v 0 l -10.756,-2.925 c -2.308,3.326 -4.891,6.453 -7.72,9.348 v 0 l 4.908,10.008 c 0.856,1.748 0.26,4.1 -1.326,5.23 v 0 l -11.12,7.917 c -1.585,1.13 -4.003,0.923 -5.375,-0.459 v 0 l -7.832,-7.891 c -3.627,1.713 -7.432,3.12 -11.38,4.22 v 0 l -0.755,11.118 c -0.133,1.941 -1.824,3.681 -3.762,3.865 v 0 l -13.588,1.297 c -0.117,0.011 -0.234,0.017 -0.35,0.017 v 0 c -1.822,0 -3.608,-1.333 -4.075,-3.102 m -34.95,-42.957 c 1.233,0.845 1.68,2.149 1.966,3.518 v 0 c 0.451,2.177 0.098,4.321 -0.374,6.447 v 0 c -1.638,7.461 -1.134,14.581 3.159,21.161 v 0 c 0.563,0.863 1.392,1.552 1.696,2.576 v 0 c 0.677,0.637 1.352,1.275 2.03,1.917 v 0 c 0.735,0.696 1.485,1.401 2.224,2.103 v 0 c 0.695,-0.745 1.403,-1.484 2.104,-2.223 v 0 c 0.439,-1.296 1.023,-2.559 0.771,-3.995 v 0 c -0.219,-1.269 -0.713,-2.369 -2.135,-2.548 v 0 c -3.139,-0.398 -4.799,-2.308 -5.529,-5.2 v 0 c -1.398,-5.539 0.162,-10.506 3.196,-15.08 v 0 c 1.025,-1.549 2.411,-2.987 4.661,-2.593 v 0 c 1.214,0.219 2.322,-0.894 2.512,-1.039 v 0 c 0.474,-0.545 0.379,-1.121 0.084,-1.701 v 0 c -0.128,-0.194 -0.283,-0.348 -0.471,-0.476 v 0 c -1,-0.733 -1.938,-1.527 -2.641,-2.557 v 0 c -0.116,-0.195 -0.241,-0.376 -0.384,-0.548 v 0 c -0.751,-1.149 -1.584,-2.196 -3.06,-2.432 v 0 c -0.423,-0.055 -0.844,-0.081 -1.243,0.089 v 0 c -1.026,0.482 -2.078,0.523 -3.153,0.213 v 0 c -0.98,-0.265 -2.038,-0.41 -2.872,-0.979 v 0 c -0.562,-0.386 -1.002,-0.546 -1.346,-0.546 v 0 c -1.654,-10e-4 -1.073,3.718 -1.195,3.893"
         id="path176"
         inkscape:connector-curvature="0" /></clipPath><linearGradient
       x1="0"
       y1="0"
       x2="1"
       y2="0"
       gradientUnits="userSpaceOnUse"
       gradientTransform="matrix(196.00113,-18.000103,-18.000103,-196.00113,250.90137,279.77588)"
       spreadMethod="pad"
       id="linearGradient190"><stop
         style="stop-opacity:1;stop-color:#f0d856"
         offset="0"
         id="stop184" /><stop
         style="stop-opacity:1;stop-color:#f1022e"
         offset="0.456989"
         id="stop186" /><stop
         style="stop-opacity:1;stop-color:#91025a"
         offset="1"
         id="stop188" /></linearGradient></defs><sodipodi:namedview
     pagecolor="#ffffff"
     bordercolor="#666666"
     borderopacity="1"
     objecttolerance="10"
     gridtolerance="10"
     guidetolerance="10"
     inkscape:pageopacity="0"
     inkscape:pageshadow="2"
     inkscape:window-width="1364"
     inkscape:window-height="747"
     id="namedview66"
     showgrid="false"
     inkscape:zoom="1.3056057"
     inkscape:cx="628.69027"
     inkscape:cy="325.2399"
     inkscape:window-x="0"
     inkscape:window-y="0"
     inkscape:window-maximized="0"
     inkscape:current-layer="g72" /><g
     id="g72"
     inkscape:groupmode="layer"
     inkscape:label="logo"
     transform="matrix(1.3333333,0,0,-1.3333333,0,612)"><g
       id="g74"
       transform="translate(383.42972,215.6016)"><path
         d="M 0,0 V -3.123 H 3.03 V 0 H 4.862 V -8.13 H 3.03 v 3.401 H 0 V -8.13 H -1.844 V 0 Z"
         style="fill:#808285;fill-opacity:1;fill-rule:nonzero;stroke:none"
         id="path76"
         inkscape:connector-curvature="0" /></g><g
       id="g78"
       transform="translate(397.49412,214.0586)"><path
         d="m 0,0 h -2.184 v 1.543 h 6.25 V 0 H 1.846 V -6.587 H 0 Z"
         style="fill:#808285;fill-opacity:1;fill-rule:nonzero;stroke:none"
         id="path80"
         inkscape:connector-curvature="0" /></g><g
       id="g82"
       transform="translate(410.39842,214.0586)"><path
         d="m 0,0 h -2.184 v 1.543 h 6.25 V 0 H 1.846 V -6.587 H 0 Z"
         style="fill:#808285;fill-opacity:1;fill-rule:nonzero;stroke:none"
         id="path84"
         inkscape:connector-curvature="0" /></g><g
       id="g86"
       transform="translate(129.16992,105.7354)"><g
         id="g88"
         clip-path="url(#clipPath92)"><g
           id="g94"
           transform="translate(294.1221,106.0674)"><path
             d="m 0,0 c 0.155,-0.036 0.349,-0.049 0.613,-0.049 0.979,0 1.581,0.495 1.581,1.328 0,0.747 -0.517,1.194 -1.433,1.194 C 0.386,2.473 0.132,2.437 0,2.401 Z M -1.822,3.691 C -1.257,3.788 -0.458,3.86 0.664,3.86 1.798,3.86 2.606,3.644 3.148,3.208 3.668,2.8 4.017,2.123 4.017,1.327 4.017,0.531 3.751,-0.145 3.269,-0.604 2.642,-1.194 1.712,-1.459 0.627,-1.459 0.386,-1.459 0.169,-1.447 0,-1.424 v -2.907 h -1.822 z"
             style="fill:#808285;fill-opacity:1;fill-rule:nonzero;stroke:none"
             id="path96"
             inkscape:connector-curvature="0" /></g><g
           id="g98"
           transform="translate(313.8643,103.6299)"><path
             d="m 0,0 c 0.493,-0.253 1.254,-0.506 2.039,-0.506 0.844,0 1.291,0.35 1.291,0.88 0,0.507 -0.388,0.797 -1.363,1.146 -1.351,0.47 -2.233,1.218 -2.233,2.401 0,1.389 1.159,2.449 3.077,2.449 0.917,0 1.591,-0.192 2.074,-0.409 L 4.477,4.477 C 4.15,4.633 3.571,4.862 2.775,4.862 1.978,4.862 1.592,4.5 1.592,4.078 1.592,3.56 2.05,3.33 3.101,2.932 4.536,2.401 5.214,1.653 5.214,0.507 c 0,-1.362 -1.053,-2.523 -3.282,-2.523 -0.932,0 -1.846,0.243 -2.305,0.496 z"
             style="fill:#808285;fill-opacity:1;fill-rule:nonzero;stroke:none"
             id="path100"
             inkscape:connector-curvature="0" /></g><g
           id="g102"
           transform="translate(329.9414,105.3545)"><path
             d="m 0,0 c 0,0.447 -0.193,1.196 -1.037,1.196 -0.772,0 -1.086,-0.7 -1.134,-1.196 z m -2.16,-1.253 c 0.061,-0.761 0.809,-1.122 1.667,-1.122 0.627,0 1.133,0.084 1.629,0.241 L 1.377,-3.377 C 0.771,-3.618 0.037,-3.74 -0.759,-3.74 c -2.004,0 -3.15,1.16 -3.15,3.006 0,1.495 0.93,3.148 2.981,3.148 1.906,0 2.629,-1.483 2.629,-2.943 0,-0.315 -0.035,-0.591 -0.059,-0.724 z"
             style="fill:#808285;fill-opacity:1;fill-rule:nonzero;stroke:none"
             id="path104"
             inkscape:connector-curvature="0" /></g><g
           id="g106"
           transform="translate(338.7695,105.6943)"><path
             d="M 0,0 C 0,0.867 -0.023,1.436 -0.048,1.941 H 1.533 L 1.592,0.856 h 0.049 c 0.301,0.857 1.025,1.218 1.593,1.218 0.169,0 0.254,0 0.386,-0.024 V 0.324 C 3.488,0.349 3.33,0.373 3.125,0.373 2.449,0.373 1.991,0.011 1.87,-0.557 1.847,-0.678 1.833,-0.821 1.833,-0.967 V -3.958 H 0 Z"
             style="fill:#808285;fill-opacity:1;fill-rule:nonzero;stroke:none"
             id="path108"
             inkscape:connector-curvature="0" /></g><g
           id="g110"
           transform="translate(350.9639,107.6357)"><path
             d="M 0,0 0.796,-2.739 C 0.94,-3.233 1.048,-3.704 1.134,-4.174 h 0.035 c 0.099,0.483 0.195,0.928 0.326,1.435 L 2.256,0 h 1.93 L 1.991,-5.899 H 0.155 L -1.99,0 Z"
             style="fill:#808285;fill-opacity:1;fill-rule:nonzero;stroke:none"
             id="path112"
             inkscape:connector-curvature="0" /></g><g
           id="g114"
           transform="translate(365.4121,105.3545)"><path
             d="m 0,0 c 0,0.447 -0.193,1.196 -1.037,1.196 -0.772,0 -1.086,-0.7 -1.134,-1.196 z m -2.16,-1.253 c 0.061,-0.761 0.809,-1.122 1.667,-1.122 0.627,0 1.133,0.084 1.629,0.241 L 1.377,-3.377 C 0.773,-3.618 0.037,-3.74 -0.759,-3.74 c -2.004,0 -3.15,1.16 -3.15,3.006 0,1.495 0.93,3.148 2.981,3.148 1.906,0 2.629,-1.483 2.629,-2.943 0,-0.315 -0.035,-0.591 -0.059,-0.724 z"
             style="fill:#808285;fill-opacity:1;fill-rule:nonzero;stroke:none"
             id="path116"
             inkscape:connector-curvature="0" /></g><g
           id="g118"
           transform="translate(378.125,105.1377)"><path
             d="m 0,0 c 0,0.097 -0.013,0.229 -0.023,0.326 -0.11,0.495 -0.509,0.904 -1.075,0.904 -0.833,0 -1.267,-0.748 -1.267,-1.675 0,-1.003 0.496,-1.629 1.254,-1.629 0.533,0 0.954,0.36 1.063,0.881 C -0.013,-1.062 0,-0.929 0,-0.771 Z M 1.833,5.164 V -1.64 c 0,-0.665 0.024,-1.364 0.049,-1.761 H 0.253 L 0.169,-2.533 H 0.146 c -0.375,-0.663 -1.088,-1.001 -1.847,-1.001 -1.399,0 -2.521,1.193 -2.521,3.027 -0.013,1.991 1.23,3.138 2.642,3.138 0.724,0 1.291,-0.253 1.557,-0.663 H 0 v 3.196 z"
             style="fill:#808285;fill-opacity:1;fill-rule:nonzero;stroke:none"
             id="path120"
             inkscape:connector-curvature="0" /></g><g
           id="g122"
           transform="translate(397.8311,109.8662)"><path
             d="M 0,0 V -3.123 H 3.027 V 0 H 4.862 V -8.13 H 3.027 v 3.401 H 0 V -8.13 H -1.844 V 0 Z"
             style="fill:#808285;fill-opacity:1;fill-rule:nonzero;stroke:none"
             id="path124"
             inkscape:connector-curvature="0" /></g><g
           id="g126"
           transform="translate(411.7852,104.6924)"><path
             d="m 0,0 c 0,-1.015 0.423,-1.774 1.208,-1.774 0.71,0 1.171,0.712 1.171,1.774 0,0.881 -0.34,1.773 -1.171,1.773 C 0.327,1.773 0,0.868 0,0 m 4.271,0.06 c 0,-2.161 -1.533,-3.149 -3.111,-3.149 -1.725,0 -3.055,1.135 -3.055,3.04 0,1.907 1.257,3.125 3.149,3.125 1.811,0 3.017,-1.243 3.017,-3.016"
             style="fill:#808285;fill-opacity:1;fill-rule:nonzero;stroke:none"
             id="path128"
             inkscape:connector-curvature="0" /></g><g
           id="g130"
           transform="translate(425.2686,109.3252)"><path
             d="M 0,0 V -1.689 H 1.315 V -3.04 H 0 v -2.135 c 0,-0.714 0.171,-1.038 0.726,-1.038 0.228,0 0.41,0.024 0.541,0.047 L 1.28,-7.553 C 1.039,-7.649 0.605,-7.711 0.085,-7.711 c -0.592,0 -1.085,0.206 -1.374,0.508 -0.338,0.349 -0.507,0.916 -0.507,1.749 V -3.04 H -2.58 v 1.351 h 0.784 v 1.279 z"
             style="fill:#808285;fill-opacity:1;fill-rule:nonzero;stroke:none"
             id="path132"
             inkscape:connector-curvature="0" /></g><g
           id="g134"
           transform="translate(272.2168,158.2656)"><path
             d="m 0,0 c 4.759,0 15.345,-1.848 15.345,-9.352 v -5.263 h -8.96 v 2.181 c 0,2.297 -3.585,3.194 -6.162,3.194 -5.823,0 -10.528,-3.752 -10.528,-11.033 0,-6.553 4.871,-11.873 10.752,-11.873 7,0 11.425,5.097 11.425,5.097 l 5.096,-7.168 c 0,0 -6.049,-7.168 -16.689,-7.168 -12.656,0 -21.001,9.072 -21.001,21.112 C -20.722,-8.793 -11.93,0 0,0"
             style="fill:#414042;fill-opacity:1;fill-rule:nonzero;stroke:none"
             id="path136"
             inkscape:connector-curvature="0" /></g><g
           id="g138"
           transform="translate(305.8721,148.2402)"><path
             d="M 0,0 C 0,0.785 -0.448,1.232 -1.232,1.232 H -3.361 V 9.354 H 5.6 c 2.856,0 4.088,-1.233 4.088,-4.088 v -8.569 c 0,-1.457 -0.113,-2.465 -0.113,-2.465 h 0.113 c 1.624,2.858 4.985,4.592 8.792,4.592 5.825,0 10.359,-2.687 10.359,-10.808 v -9.352 c 0,-0.785 0.449,-1.232 1.233,-1.232 H 32.2 v -8.119 h -8.96 c -2.856,0 -4.089,1.23 -4.089,4.087 v 12.825 c 0,2.687 -1.064,3.808 -3.19,3.808 -2.969,0 -4.929,-1.736 -5.77,-4.258 -0.392,-1.119 -0.503,-2.351 -0.503,-3.695 V -30.687 H 0 Z"
             style="fill:#414042;fill-opacity:1;fill-rule:nonzero;stroke:none"
             id="path140"
             inkscape:connector-curvature="0" /></g><path
           d="m 355.544,157.594 h 8.12 v -7.84 h -8.12 z m -0.728,-20.553 c 0,0.785 -0.448,1.232 -1.232,1.232 h -2.129 v 8.12 h 8.96 c 2.856,0 4.089,-1.233 4.089,-4.088 v -15.401 c 0,-0.785 0.448,-1.232 1.231,-1.232 h 2.129 v -8.119 h -8.959 c -2.857,0 -4.089,1.23 -4.089,4.088 z"
           style="fill:#414042;fill-opacity:1;fill-rule:nonzero;stroke:none"
           id="path142"
           inkscape:connector-curvature="0" /><g
           id="g144"
           transform="translate(384.4951,148.2402)"><path
             d="M 0,0 C 0,0.785 -0.448,1.232 -1.231,1.232 H -3.36 V 9.354 H 5.6 c 2.856,0 4.088,-1.233 4.088,-4.088 v -26.602 c 0,-0.785 0.448,-1.232 1.232,-1.232 h 2.128 v -8.119 H 4.087 C 1.232,-30.687 0,-29.457 0,-26.6 Z"
             style="fill:#414042;fill-opacity:1;fill-rule:nonzero;stroke:none"
             id="path146"
             inkscape:connector-curvature="0" /></g><path
           d="m 415.184,157.594 h 8.119 v -7.84 h -8.119 z m -0.729,-20.553 c 0,0.785 -0.448,1.232 -1.231,1.232 h -2.129 v 8.12 h 8.96 c 2.857,0 4.09,-1.233 4.09,-4.088 v -15.401 c 0,-0.785 0.446,-1.232 1.231,-1.232 h 2.129 v -8.119 h -8.96 c -2.858,0 -4.09,1.23 -4.09,4.088 z"
           style="fill:#414042;fill-opacity:1;fill-rule:nonzero;stroke:none"
           id="path148"
           inkscape:connector-curvature="0" /></g></g><g
       id="g150"
       transform="matrix(0.67791343,0,0,0.67791343,70.759834,55.933124)"><g
         id="g152"
         clip-path="url(#clipPath156)"><g
           id="g158"><g
             id="g160"><path
               d="m 302.35,287.913 c 5.96,-14.035 14.8,-25.935 25.603,-36.357 v 0 c 7.332,-7.084 15.313,-13.152 24.456,-17.299 v 0 c 12.158,-5.518 24.717,-9.027 37.918,-8.929 v 0 c 5.38,0.039 10.6,0.902 15.662,2.52 v 0 c -3.919,-0.915 -7.939,-1.379 -12.06,-1.391 v 0 c -13.48,-0.055 -26.412,3.541 -38.988,9.18 v 0 c -9.456,4.229 -17.786,10.409 -25.485,17.608 v 0 c -11.338,10.603 -20.712,22.692 -27.212,36.937 v 0 c -1.52,3.338 -2.801,6.741 -3.688,10.232 v 0 c 0.708,-4.295 2.075,-8.445 3.794,-12.501"
               style="fill:url(#linearGradient168);stroke:none"
               id="path170"
               inkscape:connector-curvature="0" /></g></g></g></g><g
       id="g172"
       transform="matrix(0.67791343,0,0,0.67791343,70.759834,55.933124)"><g
         id="g174"
         clip-path="url(#clipPath178)"><g
           id="g180"><g
             id="g182"><path
               d="m 336.401,354.295 -2.845,-10.773 c -4.084,-0.335 -8.087,-0.996 -11.971,-1.993 v 0 l -6.2,9.231 c -1.084,1.615 -3.42,2.275 -5.19,1.468 v 0 l -12.418,-5.672 c -1.771,-0.809 -2.799,-3.007 -2.29,-4.885 v 0 l 2.926,-10.755 c -3.326,-2.308 -6.453,-4.891 -9.347,-7.721 v 0 l -10.01,4.908 c -1.747,0.856 -4.101,0.26 -5.229,-1.326 v 0 l -7.918,-11.118 c -1.129,-1.585 -0.922,-4.003 0.459,-5.374 v 0 l 7.893,-7.834 c -1.712,-3.626 -3.122,-7.434 -4.222,-11.382 v 0 l -11.116,-0.753 c -1.942,-0.134 -3.682,-1.826 -3.867,-3.762 v 0 l -1.297,-13.589 c -0.184,-1.939 1.204,-3.929 3.085,-4.424 v 0 l 10.775,-2.847 c 0.333,-4.083 0.995,-8.087 1.992,-11.97 v 0 l -9.232,-6.2 c -1.616,-1.083 -2.275,-3.42 -1.467,-5.189 v 0 l 5.672,-12.417 c 0.809,-1.772 3.006,-2.801 4.883,-2.289 v 0 l 10.755,2.926 c 2.31,-3.328 4.893,-6.455 7.722,-9.352 v 0 l -4.908,-10.005 c -0.855,-1.746 -0.26,-4.1 1.325,-5.231 v 0 l 11.122,-7.918 c 1.585,-1.129 4.002,-0.924 5.374,0.457 v 0 l 7.832,7.895 c 3.626,-1.713 7.432,-3.122 11.38,-4.221 v 0 l 0.756,-11.117 c 0.131,-1.944 1.823,-3.682 3.761,-3.868 v 0 l 13.588,-1.296 c 1.939,-0.184 3.929,1.203 4.424,3.086 v 0 l 2.845,10.773 c 4.086,0.334 8.09,0.998 11.973,1.992 v 0 l 6.199,-9.228 c 1.084,-1.618 3.42,-2.278 5.191,-1.469 v 0 l 12.417,5.672 c 1.77,0.806 2.8,3.004 2.29,4.884 v 0 l -1.314,4.827 c -20.953,3.861 -66.393,18.534 -87.178,73.964 v 0 c 20.522,-49.203 65.754,-63.699 85.898,-67.797 v 0 c 3.201,2.249 6.22,4.747 9.017,7.481 v 0 l 10.009,-4.907 c 1.747,-0.855 4.099,-0.261 5.229,1.327 v 0 l 7.455,10.471 c -0.55,-0.299 -1.122,-0.561 -1.707,-0.78 v 0 c -6.179,-2.31 -12.575,-3.515 -19.161,-3.687 v 0 c -13.987,-0.354 -27.225,2.959 -39.996,8.32 v 0 c -9.603,4.023 -17.942,10.03 -25.568,17.072 v 0 c -11.242,10.364 -20.373,22.266 -26.415,36.395 v 0 c -2.459,5.763 -4.195,11.733 -4.225,18.073 v 0 c -0.009,3.036 1.247,5.458 3.857,7.11 v 0 c 1.172,0.103 0.682,-0.813 0.818,-1.344 v 0 c -0.051,-0.066 -0.105,-0.134 -0.16,-0.197 v 0 c -0.007,-0.006 -0.009,-0.01 -0.016,-0.016 v 0 c -0.082,-0.383 -0.168,-0.77 -0.255,-1.156 v 0 c 0.958,-2.229 0.997,-2.245 3.31,-1.279 v 0 c 1.189,0.493 2.328,1.136 3.662,1.171 v 0 c 1.48,0.445 2.94,0.512 4.359,-0.228 v 0 c 0.208,-0.236 0.458,-0.195 0.707,-0.154 v 0 c 0.196,0.034 0.393,0.066 0.568,-0.037 v 0 c 2.146,0.144 3.101,1.815 4.213,3.272 v 0 c 0.152,0.19 0.307,0.374 0.459,0.559 v 0 c 0.946,1.648 2.296,2.87 3.946,3.773 v 0 l 0.005,-10e-4 c 0.132,0.117 0.27,0.232 0.406,0.349 v 0 c 0.225,0.685 0.567,1.373 -0.086,2.019 v 0 c -0.279,0.114 -0.486,0.414 -0.845,0.269 v 0 c -0.62,0.516 -1.458,0.145 -2.115,0.516 v 0 c -0.708,0.072 0.057,0.569 -0.218,0.768 v 0 c 1.135,0.386 2.286,0.564 3.468,0.193 v 0 c 2.189,-0.35 3.783,-1.628 5.06,-3.336 v 0 c 1.929,-2.571 3.361,-5.431 4.621,-8.382 v 0 c 4.915,-11.546 9.765,-23.062 17.095,-33.438 v 0 c 7.386,-10.463 16.078,-19.333 26.889,-26.164 v 0 c 10.548,-6.671 22.238,-10.344 34.284,-13.079 v 0 c 1.028,-0.232 2.082,-0.392 3.106,-0.636 v 0 c -0.023,0.025 -0.04,0.055 -0.063,0.078 v 0 l -7.893,7.832 c 0.015,0.032 0.028,0.065 0.042,0.095 v 0 c -20.996,7.906 -52.049,24.893 -62.76,58.307 v 0 c 13.495,-30.406 44.643,-46.214 64.775,-53.554 v 0 c 0.815,2.129 1.545,4.304 2.164,6.529 v 0 l 11.118,0.757 c 1.942,0.13 3.681,1.823 3.865,3.761 v 0 l 1.297,13.588 c 0.186,1.938 -1.203,3.93 -3.084,4.426 v 0 l -10.774,2.843 c -0.334,4.086 -0.995,8.089 -1.993,11.974 v 0 l 9.232,6.2 c 1.615,1.085 2.276,3.42 1.467,5.191 v 0 l -5.671,12.415 c -0.809,1.771 -3.007,2.8 -4.885,2.29 v 0 l -10.756,-2.925 c -2.308,3.326 -4.891,6.453 -7.72,9.348 v 0 l 4.908,10.008 c 0.856,1.748 0.26,4.1 -1.326,5.23 v 0 l -11.12,7.917 c -1.585,1.13 -4.003,0.923 -5.375,-0.459 v 0 l -7.832,-7.891 c -3.627,1.713 -7.432,3.12 -11.38,4.22 v 0 l -0.755,11.118 c -0.133,1.941 -1.824,3.681 -3.762,3.865 v 0 l -13.588,1.297 c -0.117,0.011 -0.234,0.017 -0.35,0.017 v 0 c -1.822,0 -3.608,-1.333 -4.075,-3.102 m -34.95,-42.957 c 1.233,0.845 1.68,2.149 1.966,3.518 v 0 c 0.451,2.177 0.098,4.321 -0.374,6.447 v 0 c -1.638,7.461 -1.134,14.581 3.159,21.161 v 0 c 0.563,0.863 1.392,1.552 1.696,2.576 v 0 c 0.677,0.637 1.352,1.275 2.03,1.917 v 0 c 0.735,0.696 1.485,1.401 2.224,2.103 v 0 c 0.695,-0.745 1.403,-1.484 2.104,-2.223 v 0 c 0.439,-1.296 1.023,-2.559 0.771,-3.995 v 0 c -0.219,-1.269 -0.713,-2.369 -2.135,-2.548 v 0 c -3.139,-0.398 -4.799,-2.308 -5.529,-5.2 v 0 c -1.398,-5.539 0.162,-10.506 3.196,-15.08 v 0 c 1.025,-1.549 2.411,-2.987 4.661,-2.593 v 0 c 1.214,0.219 2.322,-0.894 2.512,-1.039 v 0 c 0.474,-0.545 0.379,-1.121 0.084,-1.701 v 0 c -0.128,-0.194 -0.283,-0.348 -0.471,-0.476 v 0 c -1,-0.733 -1.938,-1.527 -2.641,-2.557 v 0 c -0.116,-0.195 -0.241,-0.376 -0.384,-0.548 v 0 c -0.751,-1.149 -1.584,-2.196 -3.06,-2.432 v 0 c -0.423,-0.055 -0.844,-0.081 -1.243,0.089 v 0 c -1.026,0.482 -2.078,0.523 -3.153,0.213 v 0 c -0.98,-0.265 -2.038,-0.41 -2.872,-0.979 v 0 c -0.562,-0.386 -1.002,-0.546 -1.346,-0.546 v 0 c -1.654,-10e-4 -1.073,3.718 -1.195,3.893"
               style="fill:url(#linearGradient190);stroke:none"
               id="path192"
               inkscape:connector-curvature="0" /></g></g></g></g></g></svg>