<?xml version="1.0" encoding="utf-8"?>
<!-- Generator: Adobe Illustrator 16.0.0, SVG Export Plug-In . SVG Version: 6.00 Build 0)  -->
<!DOCTYPE svg PUBLIC "-//W3C//DTD SVG 1.1//EN" "http://www.w3.org/Graphics/SVG/1.1/DTD/svg11.dtd">
<svg version="1.1" id="Layer_1" xmlns="http://www.w3.org/2000/svg" xmlns:xlink="http://www.w3.org/1999/xlink" x="0px" y="0px"
	 width="354.264px" height="459px" viewBox="0 0 354.264 459" enable-background="new 0 0 354.264 459" xml:space="preserve">
<g>
	<g>
		<path fill="#414042" d="M47.34,370.131c9.182,0,29.602,3.563,29.602,18.038v10.155H59.657v-4.21c0-4.431-6.914-6.16-11.886-6.16
			c-11.232,0-20.309,7.239-20.309,21.283c0,12.639,9.398,22.901,20.741,22.901c13.504,0,22.038-9.83,22.038-9.83l9.83,13.826
			c0,0-11.667,13.828-32.192,13.828c-24.413,0-40.512-17.501-40.512-40.726C7.368,387.092,24.329,370.131,47.34,370.131z"/>
		<path fill="#414042" d="M112.263,389.469c0-1.515-0.865-2.377-2.376-2.377h-4.107v-15.666h17.285c5.511,0,7.888,2.377,7.888,7.887
			v16.528c0,2.81-0.217,4.754-0.217,4.754h0.217c3.132-5.511,9.614-8.858,16.961-8.858c11.235,0,19.982,5.186,19.982,20.85v18.039
			c0,1.514,0.866,2.377,2.377,2.377h4.107v15.664h-17.285c-5.512,0-7.888-2.375-7.888-7.885v-24.739
			c0-5.186-2.053-7.348-6.155-7.348c-5.726,0-9.508,3.351-11.129,8.212c-0.757,2.161-0.971,4.537-0.971,7.131v24.629h-18.689
			V389.469z"/>
		<path fill="#414042" d="M206.678,411.07c0-1.511-0.864-2.376-2.376-2.376h-4.106v-15.661h17.283c5.511,0,7.887,2.375,7.887,7.886
			v29.706c0,1.514,0.865,2.377,2.376,2.377h4.106v15.664h-17.283c-5.511,0-7.887-2.375-7.887-7.885V411.07z M208.081,371.426h15.665
			v15.123h-15.665V371.426z"/>
		<path fill="#414042" d="M263.93,389.469c0-1.515-0.865-2.377-2.376-2.377h-4.106v-15.666h17.284c5.51,0,7.886,2.377,7.886,7.887
			v51.313c0,1.514,0.864,2.377,2.377,2.377h4.105v15.664h-17.285c-5.508,0-7.885-2.375-7.885-7.885V389.469z"/>
		<path fill="#414042" d="M321.724,411.07c0-1.511-0.865-2.376-2.377-2.376h-4.105v-15.661h17.283c5.512,0,7.888,2.375,7.888,7.886
			v29.706c0,1.514,0.863,2.377,2.377,2.377h4.106v15.664h-17.284c-5.512,0-7.888-2.375-7.888-7.885V411.07z M323.129,371.426h15.661
			v15.123h-15.661V371.426z"/>
	</g>
	<g>
		<linearGradient id="SVGID_1_" gradientUnits="userSpaceOnUse" x1="18.1523" y1="127.8477" x2="344.8254" y2="233.9462">
			<stop  offset="0" style="stop-color:#F0D856"/>
			<stop  offset="0.457" style="stop-color:#F1022E"/>
			<stop  offset="1" style="stop-color:#91025A"/>
		</linearGradient>
		<path fill="url(#SVGID_1_)" d="M191.195,224.543c-16.678-8.043-31.237-19.518-44.62-32.775
			c-19.707-19.527-35.83-41.609-46.705-67.395c-2.544-6.041-4.657-12.188-6.062-18.471c1.045,7.71,3.271,15.194,6.132,22.529
			c9.923,25.383,25.102,47.099,43.862,66.275c12.731,13.034,26.68,24.289,42.797,32.167c21.434,10.492,43.691,17.407,67.28,17.916
			c9.614,0.207,18.986-1.063,28.112-3.689c-7.048,1.426-14.256,2.048-21.62,1.861C236.29,242.36,213.371,235.267,191.195,224.543z"
			/>
		<linearGradient id="SVGID_2_" gradientUnits="userSpaceOnUse" x1="23.6348" y1="110.959" x2="350.3121" y2="217.059">
			<stop  offset="0" style="stop-color:#F0D856"/>
			<stop  offset="0.457" style="stop-color:#F1022E"/>
			<stop  offset="1" style="stop-color:#91025A"/>
		</linearGradient>
		<path fill="url(#SVGID_2_)" d="M83.948,126.383c34.813,100.471,110.48,128.459,176.406,131.734c3.323-2.849,6.496-5.86,9.51-9.027
			c-4.479,0.553-9,0.826-13.568,0.812c-25.004-0.089-48.484-6.689-71.025-16.931c-16.946-7.688-31.533-18.849-44.795-31.822
			c-19.549-19.095-35.246-40.831-45.31-66.386c-4.096-10.425-6.888-21.18-6.613-32.507c0.141-5.425,2.51-9.688,7.257-12.501
			c2.101-0.125,1.177,1.486,1.394,2.441c-0.097,0.114-0.196,0.235-0.299,0.344c-0.011,0.009-0.015,0.019-0.026,0.028
			c-0.168,0.68-0.342,1.366-0.517,2.052c1.596,4.03,1.667,4.063,5.848,2.455c2.15-0.819,4.219-1.909,6.604-1.903
			c2.664-0.718,5.278-0.76,7.775,0.632c0.643,0.775,1.571-0.03,2.268,0.409c3.841-0.145,5.633-3.082,7.696-5.628
			c0.281-0.331,0.567-0.654,0.848-0.976c1.774-2.894,4.25-5.008,7.248-6.536l0.006,0.003c0.243-0.203,0.494-0.4,0.742-0.604
			c0.44-1.211,1.086-2.423-0.047-3.611c-0.491-0.217-0.847-0.765-1.498-0.523c-1.079-0.953-2.597-0.336-3.749-1.033
			c-1.262-0.163,0.13-1.012-0.353-1.38c2.05-0.632,4.116-0.888,6.208-0.166c3.891,0.738,6.674,3.103,8.866,6.222
			c3.313,4.692,5.726,9.874,7.822,15.214c8.186,20.88,16.254,41.704,28.813,60.622c12.654,19.072,27.725,35.37,46.685,48.129
			c18.5,12.467,39.195,19.632,60.575,25.138c2.39,0.613,4.862,1.006,7.182,1.795c3.694,1.267,4.442,4.117,1.934,7.089
			c-1.862,2.205-4.462,3.436-7.114,4.341c-2.485,0.847-4.988,1.581-7.505,2.234l10.281,3.877c3.23,1.219,7.291-0.232,9.02-3.223
			l12.118-20.993c0.485-0.843,0.754-1.783,0.856-2.75c-53.786-7.448-108.104-32.788-138.358-97.07
			c33.615,49.637,77.262,71.499,121.056,78.33l-0.544-0.446c2.418-6.697,4.265-13.661,5.542-20.824l19.523-3.211
			c3.409-0.56,6.198-3.844,6.198-7.301v-24.236c0-3.455-2.789-6.741-6.198-7.301l-19.523-3.209
			c-1.277-7.166-3.124-14.131-5.542-20.828l15.272-12.516c2.673-2.19,3.446-6.432,1.718-9.424L302.516,74.43
			c-1.729-2.994-5.789-4.443-9.02-3.226l-18.521,6.986c-4.641-5.489-9.732-10.581-15.222-15.223l6.985-18.518
			c1.219-3.233-0.23-7.293-3.223-9.021l-20.994-12.119c-2.992-1.728-7.23-0.955-9.421,1.718l-12.515,15.271
			c-6.699-2.415-13.661-4.262-20.826-5.54l-3.209-19.523c-0.561-3.409-3.846-6.198-7.302-6.198h-24.236
			c-3.456,0-6.741,2.789-7.302,6.198l-3.209,19.523c-7.165,1.278-14.127,3.125-20.825,5.54l-8.165-9.962
			c-0.023,0.205-0.041,0.407-0.085,0.616c-0.455,2.256-1.396,4.196-3.944,4.443c-5.629,0.548-8.693,3.874-10.147,9.002
			c-2.782,9.824-0.255,18.779,4.931,27.109c1.75,2.817,4.152,5.46,8.192,4.873c2.181-0.329,4.102,1.716,4.434,1.983
			c0.818,1,0.619,2.024,0.063,3.043c-0.239,0.342-0.524,0.607-0.864,0.828c-1.827,1.258-3.544,2.628-4.854,4.432
			c-0.216,0.342-0.449,0.658-0.713,0.957c-1.4,2.017-2.942,3.843-5.594,4.19c-0.757,0.075-1.511,0.099-2.217-0.223
			c-1.807-0.919-3.685-1.043-5.621-0.547c-1.763,0.423-3.663,0.627-5.18,1.602c-5.962,3.839-4.114-5.726-4.37-6.11
			c2.249-1.446,3.114-3.752,3.697-6.186c0.918-3.866,0.398-7.714-0.336-11.536c-2.541-13.413-1.272-26.107,6.735-37.643
			c1.053-1.512,2.569-2.699,3.166-4.514c1.241-1.104,2.48-2.208,3.727-3.319c0.249-0.224,0.506-0.451,0.757-0.676
			c-1.86-0.474-3.892-0.308-5.548,0.647L90.747,35.43c-2.992,1.728-4.441,5.787-3.223,9.021l6.985,18.518
			c-5.489,4.64-10.581,9.731-15.221,15.223l-18.521-6.986c-3.23-1.218-7.291,0.231-9.02,3.226L39.63,95.417
			c-1.729,2.992-0.955,7.231,1.718,9.422l15.272,12.516c-2.415,6.699-4.265,13.664-5.542,20.83l-19.523,3.209
			c-3.409,0.56-6.198,3.846-6.198,7.301v24.236c0,3.457,2.789,6.741,6.198,7.301l19.523,3.211
			c1.277,7.163,3.124,14.127,5.542,20.824l-15.272,12.516c-2.673,2.19-3.446,6.43-1.718,9.421l12.118,20.993
			c1.729,2.99,5.786,4.441,9.02,3.223l18.517-6.985c4.644,5.49,9.735,10.582,15.226,15.224l-6.985,18.516
			c-1.219,3.233,0.23,7.291,3.223,9.019l20.994,12.123c2.992,1.729,7.23,0.955,9.42-1.718l12.516-15.272
			c6.699,2.418,13.661,4.264,20.826,5.542l3.209,19.524c0.561,3.409,3.846,6.197,7.302,6.197h24.236
			c3.456,0,6.741-2.788,7.302-6.197l3.209-19.524c7.165-1.278,14.13-3.127,20.826-5.542l12.515,15.27
			c2.19,2.673,6.429,3.446,9.421,1.718l20.994-12.118c1.313-0.759,2.305-1.976,2.93-3.366
			C200.874,275.995,117.666,242.935,83.948,126.383z"/>
	</g>
</g>
</svg>
